<svg width="60" height="60" viewBox="0 0 60 60" fill="none" xmlns="http://www.w3.org/2000/svg">
<path d="M33.946 21.0799V23.2121H25.4966V21.0799C25.4966 18.7496 27.3927 16.8547 29.7219 16.8547C32.0511 16.8547 33.946 18.7496 33.946 21.0799ZM52.4425 10.1892L52.3892 29.0395C52.3892 29.0395 51.3236 38.8766 44.6255 46.8155C39.0866 53.3786 30.7798 57.471 29.7719 57.9521V58C29.7719 58 29.7545 57.9924 29.7219 57.9761C29.6881 57.9924 29.6707 58 29.6707 58V57.9521C28.6628 57.471 20.3561 53.3786 14.8182 46.8155C8.11901 38.8766 7.05454 29.0395 7.05454 29.0395L7.00012 10.1892L29.6707 2.03592V2L29.7219 2.01741L29.7719 2V2.03592L52.4425 10.1892ZM39.5176 26.1715C39.5176 24.5378 38.1919 23.2121 36.5582 23.2121H35.6875V21.0799C35.6875 17.7896 33.0111 15.1132 29.7219 15.1132C26.4327 15.1132 23.7552 17.7896 23.7552 21.0799V23.2121H22.8855C21.2507 23.2121 19.9261 24.5378 19.9261 26.1715V37.5737C19.9261 39.2074 21.2507 40.5331 22.8855 40.5331H36.5582C38.1919 40.5331 39.5176 39.2074 39.5176 37.5737V26.1715Z" fill="white"/>
</svg>
