<svg width="60" height="60" viewBox="0 0 60 60" fill="none" xmlns="http://www.w3.org/2000/svg">
<path fill-rule="evenodd" clip-rule="evenodd" d="M29.5388 12.5859H55.385V24.8919H29.5388V12.5859Z" fill="white"/>
<path fill-rule="evenodd" clip-rule="evenodd" d="M6.15409 52.7612C3.87778 52.7612 1.89471 51.3037 0.830091 49.1418C0.286548 50.2409 0.000220429 51.4897 0.000244142 52.7612C0.000244142 56.7592 2.75532 60 6.15409 60H12.3079V52.7612H6.15409Z" fill="white"/>
<path fill-rule="evenodd" clip-rule="evenodd" d="M33.8406 14.5317L55.3853 12.9479V9.32852C55.3853 5.33054 52.6302 2.08974 49.2314 2.08974H21.5391L20.7699 0.522549C20.4277 -0.174183 19.5732 -0.174183 19.2314 0.522549L18.4622 2.08974L17.6929 0.522549C17.3511 -0.174183 16.4963 -0.174183 16.1545 0.522549L15.3852 2.08974L14.616 0.522549C14.2742 -0.174183 13.4194 -0.174183 13.0775 0.522549L12.3083 2.08974C12.3015 2.08974 12.2954 2.09083 12.2883 2.09083L11.0139 0.592041C10.5308 0.0234353 9.70555 0.283308 9.52832 1.06039L9.10709 2.90773L7.50955 2.40391C6.84862 2.19579 6.24462 2.90664 6.42185 3.68372L6.84955 5.56327L5.2797 6.05804C4.61878 6.26652 4.39755 7.2376 4.88093 7.8062L6.15539 9.30536C6.15539 9.31296 6.15447 9.32056 6.15447 9.32852L4.82216 10.2334C4.22985 10.6355 4.22985 11.6409 4.82216 12.0431L6.15447 12.9479L4.82216 13.8528C4.22985 14.2549 4.22985 15.2603 4.82216 15.6624L6.15447 16.5673L4.82216 17.4721C4.22985 17.8743 4.22985 18.8797 4.82216 19.2818L6.15447 20.1867L4.82216 21.0915C4.22985 21.4936 4.22985 22.4991 4.82216 22.9012L6.15447 23.8061L4.82216 24.7109C4.22985 25.113 4.22985 26.1185 4.82216 26.5206L6.15447 27.4255L4.82216 28.3303C4.22985 28.7324 4.22985 29.7379 4.82216 30.14L6.15447 31.0448L4.82216 31.9497C4.22985 32.3518 4.22985 33.3573 4.82216 33.7594L6.15447 34.6642L4.82216 35.5691C4.22985 35.9712 4.22985 36.9767 4.82216 37.3788L6.15447 38.2836L4.82216 39.1885C4.22985 39.5906 4.22985 40.596 4.82216 40.9982L6.15447 41.903L4.82216 42.8079C4.22985 43.21 4.22985 44.2154 4.82216 44.6175L6.15447 45.5224L4.82216 46.4272C4.22985 46.8293 4.22985 47.8348 4.82216 48.2369L6.15447 49.1418L4.82216 50.0466C4.22985 50.4487 4.22985 51.4542 4.82216 51.8563L6.15447 52.7612C6.15447 56.7591 8.90955 59.9999 12.3083 59.9999H49.2314C52.6302 59.9999 55.3853 56.7591 55.3853 52.7612V23.8061L33.8406 22.2222C33.009 22.161 32.2285 21.7292 31.658 21.0148C31.0875 20.3004 30.7699 19.3571 30.7699 18.377C30.7699 16.3425 32.1145 14.6588 33.8406 14.5317Z" fill="white"/>
<path fill-rule="evenodd" clip-rule="evenodd" d="M43.0776 60H52.3084V45.5225H43.0776V60Z" fill="white"/>
<path fill-rule="evenodd" clip-rule="evenodd" d="M46.1538 38.2835H55.3846V31.0447H46.1538V38.2835Z" fill="white"/>
<path fill-rule="evenodd" clip-rule="evenodd" d="M18.4619 13.8527C18.2579 13.8527 18.0622 13.7573 17.918 13.5876C17.7737 13.418 17.6927 13.1878 17.6927 12.9478C17.6927 11.4508 16.6576 10.2333 15.385 10.2333C14.1124 10.2333 13.0773 11.4508 13.0773 12.9478C13.0773 13.1878 12.9962 13.418 12.852 13.5876C12.7077 13.7573 12.5121 13.8527 12.308 13.8527C12.104 13.8527 11.9084 13.7573 11.7641 13.5876C11.6199 13.418 11.5388 13.1878 11.5388 12.9478C11.5388 10.453 13.264 8.42358 15.385 8.42358C17.5059 8.42358 19.2311 10.453 19.2311 12.9478C19.2311 13.1878 19.1501 13.418 19.0058 13.5876C18.8616 13.7573 18.6659 13.8527 18.4619 13.8527Z" fill="black"/>
<path fill-rule="evenodd" clip-rule="evenodd" d="M50.7757 38.6456H35.3788C35.2972 38.6456 35.2189 38.6075 35.1612 38.5396C35.1035 38.4717 35.0711 38.3796 35.0711 38.2837C35.0711 38.1877 35.1035 38.0956 35.1612 38.0277C35.2189 37.9598 35.2972 37.9217 35.3788 37.9217H50.7757C50.8573 37.9217 50.9356 37.9598 50.9933 38.0277C51.051 38.0956 51.0834 38.1877 51.0834 38.2837C51.0834 38.3796 51.051 38.4717 50.9933 38.5396C50.9356 38.6075 50.8573 38.6456 50.7757 38.6456ZM50.7757 45.8844H35.3788C35.2972 45.8844 35.2189 45.8462 35.1612 45.7784C35.1035 45.7105 35.0711 45.6184 35.0711 45.5224C35.0711 45.4264 35.1035 45.3344 35.1612 45.2665C35.2189 45.1986 35.2972 45.1605 35.3788 45.1605H50.7757C50.8573 45.1605 50.9356 45.1986 50.9933 45.2665C51.051 45.3344 51.0834 45.4264 51.0834 45.5224C51.0834 45.6184 51.051 45.7105 50.9933 45.7784C50.9356 45.8462 50.8573 45.8844 50.7757 45.8844ZM50.7757 53.1231H35.3788C35.2972 53.1231 35.2189 53.085 35.1612 53.0171C35.1035 52.9493 35.0711 52.8572 35.0711 52.7612C35.0711 52.6652 35.1035 52.5732 35.1612 52.5053C35.2189 52.4374 35.2972 52.3993 35.3788 52.3993H50.7757C50.8573 52.3993 50.9356 52.4374 50.9933 52.5053C51.051 52.5732 51.0834 52.6652 51.0834 52.7612C51.0834 52.8572 51.051 52.9493 50.9933 53.0171C50.9356 53.085 50.8573 53.1231 50.7757 53.1231ZM50.7757 35.0935H35.3788C35.2972 35.0935 35.2189 35.0554 35.1612 34.9875C35.1035 34.9196 35.0711 34.8276 35.0711 34.7316C35.0711 34.6356 35.1035 34.5435 35.1612 34.4757C35.2189 34.4078 35.2972 34.3696 35.3788 34.3696H50.7757C50.8573 34.3696 50.9356 34.4078 50.9933 34.4757C51.051 34.5435 51.0834 34.6356 51.0834 34.7316C51.0834 34.8276 51.051 34.9196 50.9933 34.9875C50.9356 35.0554 50.8573 35.0935 50.7757 35.0935ZM50.7757 42.265H35.3788C35.2972 42.265 35.2189 42.2268 35.1612 42.159C35.1035 42.0911 35.0711 41.999 35.0711 41.903C35.0711 41.807 35.1035 41.715 35.1612 41.6471C35.2189 41.5792 35.2972 41.5411 35.3788 41.5411H50.7757C50.8573 41.5411 50.9356 41.5792 50.9933 41.6471C51.051 41.715 51.0834 41.807 51.0834 41.903C51.0834 41.999 51.051 42.0911 50.9933 42.159C50.9356 42.2268 50.8573 42.265 50.7757 42.265ZM50.7757 49.5038H35.3788C35.2972 49.5038 35.2189 49.4656 35.1612 49.3977C35.1035 49.3299 35.0711 49.2378 35.0711 49.1418C35.0711 49.0458 35.1035 48.9538 35.1612 48.8859C35.2189 48.818 35.2972 48.7799 35.3788 48.7799H50.7757C50.8573 48.7799 50.9356 48.818 50.9933 48.8859C51.051 48.9538 51.0834 49.0458 51.0834 49.1418C51.0834 49.2378 51.051 49.3299 50.9933 49.3977C50.9356 49.4656 50.8573 49.5038 50.7757 49.5038ZM55.3849 16.0646C55.3812 16.0646 55.3782 16.0624 55.3745 16.0628C54.4237 16.1008 53.9739 17.2195 53.5769 18.2065C53.1628 19.2381 52.8425 19.9087 52.3175 19.8885C51.7363 19.8639 51.404 19.0915 51.052 18.2742C50.6477 17.3354 50.1862 16.2705 49.2172 16.3104C48.28 16.348 47.8286 17.3216 47.4305 18.1805C47.0068 19.0955 46.7185 19.6518 46.1625 19.6261C45.5695 19.6007 45.2545 18.9728 44.8899 18.246C44.4834 17.4367 44.0135 16.5268 43.0634 16.5579C42.1422 16.5952 41.6895 17.4211 41.2902 18.1504C40.8677 18.9214 40.5717 19.3912 40.0086 19.3633C39.4015 19.338 39.088 18.8168 38.7252 18.2134C38.3179 17.5355 37.8588 16.7682 36.9114 16.8055C36.0105 16.8417 35.5579 17.5185 35.1588 18.115C34.7797 18.6811 34.4837 19.1291 33.8575 19.1009C33.7759 19.0974 33.6965 19.1323 33.6367 19.1977C33.5769 19.2631 33.5417 19.3538 33.5388 19.4498C33.5358 19.5458 33.5654 19.6392 33.6211 19.7096C33.6767 19.7799 33.7538 19.8213 33.8354 19.8248C34.7637 19.8613 35.2339 19.1733 35.6422 18.5627C36.0043 18.0212 36.3169 17.554 36.9323 17.5294C37.5249 17.4997 37.8028 17.9329 38.2231 18.6315C38.6222 19.2953 39.0751 20.0481 39.9865 20.0868C40.9412 20.1245 41.4006 19.2851 41.8074 18.5424C42.1711 17.8786 42.4849 17.3057 43.0843 17.2814C43.636 17.2572 43.9363 17.7701 44.3597 18.6137C44.7588 19.4089 45.2108 20.3098 46.1403 20.3496C47.1019 20.3887 47.5662 19.4013 47.9708 18.5272C48.3212 17.7715 48.652 17.0578 49.2382 17.0339C49.7899 17.0187 50.0775 17.6112 50.5031 18.6011C50.9006 19.5251 51.3514 20.5718 52.2954 20.612L52.3474 20.6131C53.2902 20.6131 53.7375 19.5001 54.1335 18.516C54.484 17.6437 54.8157 16.8221 55.3849 16.7885V16.0646Z" fill="black"/>
<path fill-rule="evenodd" clip-rule="evenodd" d="M24.6155 60H36.9232V45.5225H24.6155V60Z" fill="white"/>
<path d="M55.3109 22.4388L31.3791 29.9818C31.0508 30.0853 30.856 30.4822 30.9439 30.8684L33.2826 41.1353C33.3706 41.5214 33.708 41.7506 34.0363 41.6471L57.9681 34.1041C58.2964 34.0006 58.4912 33.6037 58.4033 33.2175L56.0646 22.9507C55.9766 22.5645 55.6392 22.3353 55.3109 22.4388Z" fill="#D8D8D8"/>
<path d="M38.6021 35.6021L37.7452 35.8721C37.5811 35.9239 37.4837 36.1223 37.5276 36.3154L37.7572 37.3233C37.8012 37.5164 37.9699 37.631 38.1341 37.5793L38.9909 37.3092C39.1551 37.2575 39.2525 37.059 39.2085 36.8659L38.9789 35.858C38.9349 35.6649 38.7662 35.5503 38.6021 35.6021Z" fill="#4A4A4A"/>
<path d="M40.3218 35.0601L39.4649 35.3302C39.3008 35.3819 39.2034 35.5804 39.2474 35.7734L39.477 36.7813C39.5209 36.9744 39.6897 37.089 39.8538 37.0373L40.7106 36.7672C40.8748 36.7155 40.9722 36.517 40.9282 36.3239L40.6986 35.316C40.6546 35.1229 40.4859 35.0083 40.3218 35.0601Z" fill="#4A4A4A"/>
<path d="M42.0422 34.5181L41.1854 34.7882C41.0212 34.8399 40.9238 35.0384 40.9678 35.2314L41.1974 36.2394C41.2414 36.4324 41.4101 36.547 41.5743 36.4953L42.4311 36.2252C42.5953 36.1735 42.6927 35.975 42.6487 35.7819L42.4191 34.774C42.3751 34.5809 42.2064 34.4664 42.0422 34.5181Z" fill="#4A4A4A"/>
<path d="M43.762 33.9759L42.9051 34.2459C42.741 34.2977 42.6436 34.4961 42.6875 34.6892L42.9171 35.6971C42.9611 35.8902 43.1298 36.0048 43.294 35.953L44.1508 35.683C44.315 35.6312 44.4124 35.4328 44.3684 35.2397L44.1388 34.2318C44.0948 34.0387 43.9261 33.9241 43.762 33.9759Z" fill="#4A4A4A"/>
<path d="M45.4817 33.4339L44.6248 33.7039C44.4607 33.7557 44.3633 33.9541 44.4073 34.1472L44.6369 35.1551C44.6808 35.3482 44.8496 35.4628 45.0137 35.4111L45.8706 35.141C46.0347 35.0893 46.1321 34.8908 46.0881 34.6977L45.8585 33.6898C45.8146 33.4967 45.6458 33.3821 45.4817 33.4339Z" fill="#4A4A4A"/>
<path d="M47.2022 32.8916L46.3453 33.1617C46.1812 33.2134 46.0838 33.4119 46.1277 33.605L46.3573 34.6129C46.4013 34.806 46.57 34.9206 46.7342 34.8688L47.591 34.5988C47.7552 34.547 47.8526 34.3485 47.8086 34.1555L47.579 33.1476C47.535 32.9545 47.3663 32.8399 47.2022 32.8916Z" fill="#4A4A4A"/>
<path d="M48.9219 32.3494L48.065 32.6195C47.9009 32.6712 47.8035 32.8697 47.8475 33.0627L48.0771 34.0707C48.121 34.2637 48.2898 34.3783 48.4539 34.3266L49.3107 34.0565C49.4749 34.0048 49.5723 33.8063 49.5283 33.6132L49.2987 32.6053C49.2547 32.4122 49.086 32.2977 48.9219 32.3494Z" fill="#4A4A4A"/>
<path d="M50.6416 31.8074L49.7848 32.0775C49.6206 32.1292 49.5232 32.3277 49.5672 32.5207L49.7968 33.5287C49.8408 33.7217 50.0095 33.8363 50.1736 33.7846L51.0305 33.5145C51.1946 33.4628 51.292 33.2643 51.248 33.0712L51.0185 32.0633C50.9745 31.8702 50.8058 31.7557 50.6416 31.8074Z" fill="#4A4A4A"/>
<path d="M52.3621 31.2654L51.5052 31.5355C51.3411 31.5872 51.2437 31.7857 51.2876 31.9788L51.5172 32.9867C51.5612 33.1798 51.7299 33.2943 51.8941 33.2426L52.7509 32.9725C52.9151 32.9208 53.0125 32.7223 52.9685 32.5292L52.7389 31.5213C52.6949 31.3283 52.5262 31.2137 52.3621 31.2654Z" fill="#4A4A4A"/>
<path fill-rule="evenodd" clip-rule="evenodd" d="M33.177 37.3127L36.8285 36.1618C36.9074 36.1369 36.9914 36.1499 37.062 36.1979C37.1327 36.2459 37.1843 36.325 37.2054 36.4177L37.4349 37.4253C37.456 37.518 37.445 37.6168 37.4042 37.6999C37.3634 37.783 37.2962 37.8437 37.2173 37.8685L33.5658 39.0195C33.487 39.0443 33.403 39.0313 33.3324 38.9833C33.2617 38.9353 33.2101 38.8562 33.189 38.7635L32.9594 37.7556C32.9383 37.6629 32.9493 37.5641 32.9901 37.481C33.0309 37.3978 33.0981 37.3372 33.177 37.3123L33.177 37.3127ZM53.2784 30.977L56.9302 29.8259C57.009 29.8011 57.093 29.8141 57.1637 29.8621C57.2344 29.9101 57.2859 29.9892 57.3071 30.0819L57.5366 31.0894C57.5577 31.1822 57.5466 31.281 57.5058 31.3641C57.465 31.4472 57.3978 31.5079 57.319 31.5327L53.6669 32.6838C53.5881 32.7087 53.5041 32.6957 53.4334 32.6477C53.3628 32.5997 53.3112 32.5206 53.2901 32.4279L53.0605 31.42C53.0393 31.3273 53.0504 31.2285 53.0912 31.1453C53.132 31.0622 53.1992 31.0015 53.278 30.9767L53.2784 30.977Z" fill="#4A4A4A"/>
<path fill-rule="evenodd" clip-rule="evenodd" d="M32.2463 33.2271L33.6402 32.7878C33.719 32.7629 33.803 32.7759 33.8737 32.8239C33.9444 32.8719 33.9959 32.951 34.0171 33.0437L34.2466 34.0513C34.2677 34.144 34.2566 34.2428 34.2158 34.3259C34.175 34.4091 34.1078 34.4697 34.029 34.4946L32.6351 34.9339C32.5563 34.9587 32.4723 34.9457 32.4016 34.8977C32.3309 34.8497 32.2794 34.7707 32.2582 34.678L32.0287 33.6704C32.0076 33.5777 32.0187 33.4789 32.0595 33.3958C32.1003 33.3126 32.1675 33.252 32.2463 33.2271Z" fill="#4A4A4A"/>
<path d="M35.3605 32.2456L34.5036 32.5157C34.3395 32.5674 34.2421 32.7659 34.2861 32.959L34.5157 33.9669C34.5596 34.16 34.7284 34.2746 34.8925 34.2228L35.7493 33.9528C35.9135 33.901 36.0109 33.7026 35.9669 33.5095L35.7373 32.5016C35.6933 32.3085 35.5246 32.1939 35.3605 32.2456Z" fill="#4A4A4A"/>
<path d="M37.0809 31.7034L36.2241 31.9735C36.0599 32.0252 35.9625 32.2237 36.0065 32.4167L36.2361 33.4247C36.2801 33.6177 36.4488 33.7323 36.613 33.6806L37.4698 33.4105C37.6339 33.3588 37.7314 33.1603 37.6874 32.9672L37.4578 31.9593C37.4138 31.7662 37.2451 31.6517 37.0809 31.7034Z" fill="#4A4A4A"/>
<path d="M38.8007 31.1614L37.9438 31.4315C37.7797 31.4832 37.6823 31.6817 37.7262 31.8748L37.9558 32.8827C37.9998 33.0757 38.1685 33.1903 38.3327 33.1386L39.1895 32.8685C39.3537 32.8168 39.4511 32.6183 39.4071 32.4252L39.1775 31.4173C39.1335 31.2242 38.9648 31.1097 38.8007 31.1614Z" fill="#4A4A4A"/>
<path d="M40.5204 30.6192L39.6635 30.8892C39.4994 30.941 39.402 31.1394 39.446 31.3325L39.6756 32.3404C39.7195 32.5335 39.8883 32.6481 40.0524 32.5964L40.9093 32.3263C41.0734 32.2746 41.1708 32.0761 41.1268 31.883L40.8972 30.8751C40.8533 30.682 40.6845 30.5674 40.5204 30.6192Z" fill="#4A4A4A"/>
<path d="M42.2409 30.0772L41.384 30.3472C41.2199 30.399 41.1224 30.5974 41.1664 30.7905L41.396 31.7984C41.44 31.9915 41.6087 32.1061 41.7729 32.0544L42.6297 31.7843C42.7939 31.7326 42.8913 31.5341 42.8473 31.341L42.6177 30.3331C42.5737 30.14 42.405 30.0254 42.2409 30.0772Z" fill="#4A4A4A"/>
<path d="M43.9606 29.5352L43.1037 29.8052C42.9396 29.857 42.8422 30.0554 42.8862 30.2485L43.1157 31.2564C43.1597 31.4495 43.3284 31.5641 43.4926 31.5124L44.3494 31.2423C44.5136 31.1906 44.611 30.9921 44.567 30.799L44.3374 29.7911C44.2934 29.598 44.1247 29.4834 43.9606 29.5352Z" fill="#4A4A4A"/>
<path d="M45.6803 28.9929L44.8235 29.263C44.6593 29.3147 44.5619 29.5132 44.6059 29.7063L44.8355 30.7142C44.8795 30.9073 45.0482 31.0219 45.2123 30.9701L46.0692 30.7001C46.2333 30.6483 46.3307 30.4499 46.2867 30.2568L46.0571 29.2489C46.0132 29.0558 45.8444 28.9412 45.6803 28.9929Z" fill="#4A4A4A"/>
<path d="M47.4 28.4507L46.5432 28.7208C46.379 28.7725 46.2816 28.971 46.3256 29.1641L46.5552 30.172C46.5992 30.3651 46.7679 30.4796 46.932 30.4279L47.7889 30.1578C47.953 30.1061 48.0504 29.9076 48.0065 29.7146L47.7769 28.7066C47.7329 28.5136 47.5642 28.399 47.4 28.4507Z" fill="#4A4A4A"/>
<path d="M49.1198 27.9087L48.2629 28.1788C48.0988 28.2305 48.0014 28.429 48.0453 28.6221L48.2749 29.63C48.3189 29.8231 48.4876 29.9376 48.6518 29.8859L49.5086 29.6158C49.6728 29.5641 49.7702 29.3656 49.7262 29.1726L49.4966 28.1646C49.4526 27.9716 49.2839 27.857 49.1198 27.9087Z" fill="#4A4A4A"/>
<path d="M50.8395 27.3665L49.9826 27.6365C49.8185 27.6883 49.7211 27.8867 49.7651 28.0798L49.9947 29.0877C50.0386 29.2808 50.2074 29.3954 50.3715 29.3437L51.2284 29.0736C51.3925 29.0219 51.4899 28.8234 51.4459 28.6303L51.2163 27.6224C51.1723 27.4293 51.0036 27.3147 50.8395 27.3665Z" fill="#4A4A4A"/>
<path d="M52.5599 26.8245L51.7031 27.0946C51.5389 27.1463 51.4415 27.3448 51.4855 27.5378L51.7151 28.5458C51.7591 28.7388 51.9278 28.8534 52.092 28.8017L52.9488 28.5316C53.113 28.4799 53.2104 28.2814 53.1664 28.0883L52.9368 27.0804C52.8928 26.8873 52.7241 26.7728 52.5599 26.8245Z" fill="#4A4A4A"/>
<path d="M54.2797 26.2825L53.4228 26.5526C53.2587 26.6043 53.1613 26.8028 53.2052 26.9958L53.4348 28.0038C53.4788 28.1968 53.6475 28.3114 53.8117 28.2597L54.6685 27.9896C54.8327 27.9379 54.9301 27.7394 54.8861 27.5463L54.6565 26.5384C54.6125 26.3453 54.4438 26.2308 54.2797 26.2825Z" fill="#4A4A4A"/>
<path d="M56.0001 25.7405L55.1433 26.0106C54.9791 26.0623 54.8817 26.2608 54.9257 26.4539L55.1553 27.4618C55.1993 27.6549 55.368 27.7694 55.5321 27.7177L56.389 27.4476C56.5531 27.3959 56.6505 27.1974 56.6066 27.0043L56.377 25.9964C56.333 25.8033 56.1643 25.6888 56.0001 25.7405Z" fill="#4A4A4A"/>
<path fill-rule="evenodd" clip-rule="evenodd" d="M55.9482 25.5116L54.554 25.9511C54.4751 25.9759 54.3911 25.9629 54.3205 25.9149C54.2498 25.8669 54.1982 25.7879 54.1771 25.6952L53.9475 24.6872C53.9264 24.5945 53.9374 24.4957 53.9783 24.4126C54.0191 24.3295 54.0863 24.2688 54.1651 24.244L55.5593 23.8045C55.6381 23.7797 55.7221 23.7927 55.7928 23.8407C55.8634 23.8887 55.915 23.9677 55.9361 24.0604L56.1657 25.0684C56.1868 25.1611 56.1758 25.2599 56.135 25.343C56.0942 25.4261 56.027 25.4868 55.9482 25.5116Z" fill="#4A4A4A"/>
<path d="M52.8337 26.4931L53.6906 26.2231C53.8547 26.1713 53.9521 25.9729 53.9082 25.7798L53.6786 24.7719C53.6346 24.5788 53.4659 24.4642 53.3017 24.5159L52.4449 24.786C52.2807 24.8378 52.1833 25.0362 52.2273 25.2293L52.4569 26.2372C52.5009 26.4303 52.6696 26.5449 52.8337 26.4931Z" fill="#4A4A4A"/>
<path d="M51.114 27.0354L51.9709 26.7653C52.135 26.7136 52.2324 26.5151 52.1884 26.322L51.9588 25.3141C51.9149 25.121 51.7461 25.0064 51.582 25.0582L50.7251 25.3283C50.561 25.38 50.4636 25.5785 50.5076 25.7715L50.7372 26.7794C50.7811 26.9725 50.9499 27.0871 51.114 27.0354Z" fill="#4A4A4A"/>
<path d="M49.3943 27.5774L50.2511 27.3073C50.4153 27.2556 50.5127 27.0571 50.4687 26.864L50.2391 25.8561C50.1951 25.663 50.0264 25.5484 49.8623 25.6002L49.0054 25.8702C48.8413 25.922 48.7439 26.1204 48.7878 26.3135L49.0174 27.3214C49.0614 27.5145 49.2301 27.6291 49.3943 27.5774Z" fill="#4A4A4A"/>
<path d="M47.6738 28.1196L48.5307 27.8495C48.6948 27.7978 48.7922 27.5993 48.7482 27.4063L48.5187 26.3983C48.4747 26.2053 48.306 26.0907 48.1418 26.1424L47.285 26.4125C47.1208 26.4642 47.0234 26.6627 47.0674 26.8558L47.297 27.8637C47.341 28.0568 47.5097 28.1713 47.6738 28.1196Z" fill="#4A4A4A"/>
<path d="M45.9541 28.6616L46.8109 28.3915C46.9751 28.3398 47.0725 28.1413 47.0285 27.9482L46.7989 26.9403C46.7549 26.7472 46.5862 26.6327 46.4221 26.6844L45.5652 26.9545C45.4011 27.0062 45.3037 27.2047 45.3477 27.3978L45.5773 28.4057C45.6212 28.5988 45.79 28.7133 45.9541 28.6616Z" fill="#4A4A4A"/>
<path d="M44.2344 29.2038L45.0912 28.9338C45.2554 28.882 45.3528 28.6836 45.3088 28.4905L45.0792 27.4826C45.0352 27.2895 44.8665 27.1749 44.7024 27.2266L43.8455 27.4967C43.6814 27.5484 43.5839 27.7469 43.6279 27.94L43.8575 28.9479C43.9015 29.141 44.0702 29.2556 44.2344 29.2038Z" fill="#4A4A4A"/>
<path d="M42.5139 29.7458L43.3708 29.4758C43.5349 29.424 43.6323 29.2256 43.5883 29.0325L43.3587 28.0246C43.3148 27.8315 43.146 27.7169 42.9819 27.7686L42.125 28.0387C41.9609 28.0904 41.8635 28.2889 41.9075 28.482L42.1371 29.4899C42.181 29.683 42.3498 29.7976 42.5139 29.7458Z" fill="#4A4A4A"/>
<path d="M40.7942 30.2878L41.651 30.0177C41.8152 29.966 41.9126 29.7675 41.8686 29.5745L41.639 28.5666C41.595 28.3735 41.4263 28.2589 41.2622 28.3106L40.4053 28.5807C40.2412 28.6324 40.1438 28.8309 40.1877 29.024L40.4173 30.0319C40.4613 30.225 40.63 30.3396 40.7942 30.2878Z" fill="#4A4A4A"/>
<path d="M39.0745 30.8301L39.9313 30.56C40.0955 30.5082 40.1929 30.3098 40.1489 30.1167L39.9193 29.1088C39.8753 28.9157 39.7066 28.8011 39.5424 28.8529L38.6856 29.1229C38.5214 29.1747 38.424 29.3731 38.468 29.5662L38.6976 30.5741C38.7416 30.7672 38.9103 30.8818 39.0745 30.8301Z" fill="#4A4A4A"/>
<path d="M37.3547 31.3723L38.2116 31.1022C38.3757 31.0505 38.4731 30.852 38.4292 30.6589L38.1996 29.651C38.1556 29.4579 37.9869 29.3434 37.8227 29.3951L36.9659 29.6652C36.8017 29.7169 36.7043 29.9154 36.7483 30.1084L36.9779 31.1164C37.0219 31.3094 37.1906 31.424 37.3547 31.3723Z" fill="#4A4A4A"/>
<path d="M35.6343 31.9143L36.4911 31.6442C36.6553 31.5925 36.7527 31.394 36.7087 31.2009L36.4791 30.193C36.4351 29.9999 36.2664 29.8854 36.1023 29.9371L35.2454 30.2072C35.0813 30.2589 34.9839 30.4574 35.0278 30.6504L35.2574 31.6584C35.3014 31.8514 35.4701 31.966 35.6343 31.9143Z" fill="#4A4A4A"/>
<path d="M33.9145 32.4565L34.7714 32.1865C34.9355 32.1347 35.0329 31.9362 34.989 31.7432L34.7594 30.7353C34.7154 30.5422 34.5467 30.4276 34.3825 30.4793L33.5257 30.7494C33.3615 30.8011 33.2641 30.9996 33.3081 31.1927L33.5377 32.2006C33.5817 32.3937 33.7504 32.5083 33.9145 32.4565Z" fill="#4A4A4A"/>
<path d="M32.1948 32.9985L33.0517 32.7284C33.2158 32.6767 33.3132 32.4782 33.2692 32.2852L33.0396 31.2772C32.9957 31.0842 32.8269 30.9696 32.6628 31.0213L31.806 31.2914C31.6418 31.3431 31.5444 31.5416 31.5884 31.7347L31.818 32.7426C31.862 32.9357 32.0307 33.0502 32.1948 32.9985Z" fill="#4A4A4A"/>
<path d="M52.8337 26.4931L53.6906 26.2231C53.8547 26.1713 53.9521 25.9729 53.9082 25.7798L53.6786 24.7719C53.6346 24.5788 53.4659 24.4642 53.3017 24.5159L52.4449 24.786C52.2807 24.8378 52.1833 25.0362 52.2273 25.2293L52.4569 26.2372C52.5009 26.4303 52.6696 26.5449 52.8337 26.4931Z" fill="#4A4A4A"/>
<path d="M51.114 27.0354L51.9709 26.7653C52.135 26.7136 52.2324 26.5151 52.1884 26.322L51.9588 25.3141C51.9149 25.121 51.7461 25.0064 51.582 25.0582L50.7251 25.3283C50.561 25.38 50.4636 25.5785 50.5076 25.7715L50.7372 26.7794C50.7811 26.9725 50.9499 27.0871 51.114 27.0354Z" fill="#4A4A4A"/>
<path d="M49.3943 27.5774L50.2511 27.3073C50.4153 27.2556 50.5127 27.0571 50.4687 26.864L50.2391 25.8561C50.1951 25.663 50.0264 25.5484 49.8623 25.6002L49.0054 25.8702C48.8413 25.922 48.7439 26.1204 48.7878 26.3135L49.0174 27.3214C49.0614 27.5145 49.2301 27.6291 49.3943 27.5774Z" fill="#4A4A4A"/>
<path d="M47.6738 28.1196L48.5307 27.8495C48.6948 27.7978 48.7922 27.5993 48.7482 27.4063L48.5187 26.3983C48.4747 26.2053 48.306 26.0907 48.1418 26.1424L47.285 26.4125C47.1208 26.4642 47.0234 26.6627 47.0674 26.8558L47.297 27.8637C47.341 28.0568 47.5097 28.1713 47.6738 28.1196Z" fill="#4A4A4A"/>
<path d="M45.9541 28.6616L46.8109 28.3915C46.9751 28.3398 47.0725 28.1413 47.0285 27.9482L46.7989 26.9403C46.7549 26.7472 46.5862 26.6327 46.4221 26.6844L45.5652 26.9545C45.4011 27.0062 45.3037 27.2047 45.3477 27.3978L45.5773 28.4057C45.6212 28.5988 45.79 28.7133 45.9541 28.6616Z" fill="#4A4A4A"/>
<path d="M44.2344 29.2038L45.0912 28.9338C45.2554 28.882 45.3528 28.6836 45.3088 28.4905L45.0792 27.4826C45.0352 27.2895 44.8665 27.1749 44.7024 27.2266L43.8455 27.4967C43.6814 27.5484 43.5839 27.7469 43.6279 27.94L43.8575 28.9479C43.9015 29.141 44.0702 29.2556 44.2344 29.2038Z" fill="#4A4A4A"/>
<path d="M42.5139 29.7458L43.3708 29.4758C43.5349 29.424 43.6323 29.2256 43.5883 29.0325L43.3587 28.0246C43.3148 27.8315 43.146 27.7169 42.9819 27.7686L42.125 28.0387C41.9609 28.0904 41.8635 28.2889 41.9075 28.482L42.1371 29.4899C42.181 29.683 42.3498 29.7976 42.5139 29.7458Z" fill="#4A4A4A"/>
<path d="M40.7942 30.2878L41.651 30.0177C41.8152 29.966 41.9126 29.7675 41.8686 29.5745L41.639 28.5666C41.595 28.3735 41.4263 28.2589 41.2622 28.3106L40.4053 28.5807C40.2412 28.6324 40.1438 28.8309 40.1877 29.024L40.4173 30.0319C40.4613 30.225 40.63 30.3396 40.7942 30.2878Z" fill="#4A4A4A"/>
<path d="M39.0745 30.8301L39.9313 30.56C40.0955 30.5082 40.1929 30.3098 40.1489 30.1167L39.9193 29.1088C39.8753 28.9157 39.7066 28.8011 39.5424 28.8529L38.6856 29.1229C38.5214 29.1747 38.424 29.3731 38.468 29.5662L38.6976 30.5741C38.7416 30.7672 38.9103 30.8818 39.0745 30.8301Z" fill="#4A4A4A"/>
<path d="M37.3547 31.3723L38.2116 31.1022C38.3757 31.0505 38.4731 30.852 38.4292 30.6589L38.1996 29.651C38.1556 29.4579 37.9869 29.3434 37.8227 29.3951L36.9659 29.6652C36.8017 29.7169 36.7043 29.9154 36.7483 30.1084L36.9779 31.1164C37.0219 31.3094 37.1906 31.424 37.3547 31.3723Z" fill="#4A4A4A"/>
<path d="M35.6343 31.9143L36.4911 31.6442C36.6553 31.5925 36.7527 31.394 36.7087 31.2009L36.4791 30.193C36.4351 29.9999 36.2664 29.8854 36.1023 29.9371L35.2454 30.2072C35.0813 30.2589 34.9839 30.4574 35.0278 30.6504L35.2574 31.6584C35.3014 31.8514 35.4701 31.966 35.6343 31.9143Z" fill="#4A4A4A"/>
<path d="M33.9145 32.4565L34.7714 32.1865C34.9355 32.1347 35.0329 31.9362 34.989 31.7432L34.7594 30.7353C34.7154 30.5422 34.5467 30.4276 34.3825 30.4793L33.5257 30.7494C33.3615 30.8011 33.2641 30.9996 33.3081 31.1927L33.5377 32.2006C33.5817 32.3937 33.7504 32.5083 33.9145 32.4565Z" fill="#4A4A4A"/>
<path d="M32.1948 32.9985L33.0517 32.7284C33.2158 32.6767 33.3132 32.4782 33.2692 32.2852L33.0396 31.2772C32.9957 31.0842 32.8269 30.9696 32.6628 31.0213L31.806 31.2914C31.6418 31.3431 31.5444 31.5416 31.5884 31.7347L31.818 32.7426C31.862 32.9357 32.0307 33.0502 32.1948 32.9985Z" fill="#4A4A4A"/>
<path fill-rule="evenodd" clip-rule="evenodd" d="M32.7079 35.2498L34.6932 34.6241C34.772 34.5992 34.856 34.6122 34.9267 34.6602C34.9974 34.7082 35.0489 34.7873 35.07 34.88L35.2996 35.8879C35.3208 35.9806 35.3097 36.0794 35.2689 36.1626C35.2281 36.2457 35.1609 36.3064 35.0821 36.3312L33.0967 36.957C33.0179 36.9818 32.9339 36.9688 32.8632 36.9208C32.7926 36.8728 32.741 36.7937 32.7199 36.701L32.4904 35.6935C32.4692 35.6007 32.4803 35.5019 32.5211 35.4188C32.5619 35.3357 32.6291 35.275 32.7079 35.2502L32.7079 35.2498Z" fill="#4A4A4A"/>
<path d="M36.4666 34.065L35.6097 34.335C35.4456 34.3868 35.3482 34.5852 35.3921 34.7783L35.6217 35.7862C35.6657 35.9793 35.8344 36.0939 35.9986 36.0422L36.8554 35.7721C37.0196 35.7204 37.117 35.5219 37.073 35.3288L36.8434 34.3209C36.7994 34.1278 36.6307 34.0132 36.4666 34.065Z" fill="#4A4A4A"/>
<path d="M38.187 33.5227L37.3302 33.7928C37.166 33.8445 37.0686 34.043 37.1126 34.2361L37.3422 35.244C37.3862 35.4371 37.5549 35.5517 37.719 35.4999L38.5759 35.2299C38.74 35.1781 38.8374 34.9797 38.7935 34.7866L38.5639 33.7787C38.5199 33.5856 38.3512 33.471 38.187 33.5227Z" fill="#4A4A4A"/>
<path d="M39.9067 32.9807L39.0499 33.2508C38.8858 33.3025 38.7883 33.501 38.8323 33.6941L39.0619 34.702C39.1059 34.8951 39.2746 35.0097 39.4388 34.9579L40.2956 34.6879C40.4598 34.6361 40.5572 34.4377 40.5132 34.2446L40.2836 33.2367C40.2396 33.0436 40.0709 32.929 39.9067 32.9807Z" fill="#4A4A4A"/>
<path d="M41.6265 32.4387L40.7696 32.7088C40.6055 32.7605 40.5081 32.959 40.552 33.1521L40.7816 34.16C40.8256 34.3531 40.9943 34.4677 41.1585 34.4159L42.0153 34.1459C42.1795 34.0941 42.2769 33.8957 42.2329 33.7026L42.0033 32.6947C41.9593 32.5016 41.7906 32.387 41.6265 32.4387Z" fill="#4A4A4A"/>
<path d="M43.3462 31.8965L42.4893 32.1666C42.3252 32.2183 42.2278 32.4168 42.2718 32.6099L42.5014 33.6178C42.5453 33.8109 42.7141 33.9254 42.8782 33.8737L43.7351 33.6036C43.8992 33.5519 43.9966 33.3534 43.9526 33.1604L43.723 32.1524C43.6791 31.9594 43.5103 31.8448 43.3462 31.8965Z" fill="#4A4A4A"/>
<path d="M45.0667 31.3545L44.2098 31.6246C44.0457 31.6763 43.9483 31.8748 43.9922 32.0679L44.2218 33.0758C44.2658 33.2689 44.4345 33.3834 44.5987 33.3317L45.4555 33.0616C45.6197 33.0099 45.7171 32.8114 45.6731 32.6184L45.4435 31.6104C45.3995 31.4174 45.2308 31.3028 45.0667 31.3545Z" fill="#4A4A4A"/>
<path d="M46.7864 30.8123L45.9295 31.0823C45.7654 31.1341 45.668 31.3325 45.712 31.5256L45.9416 32.5335C45.9855 32.7266 46.1543 32.8412 46.3184 32.7895L47.1752 32.5194C47.3394 32.4677 47.4368 32.2692 47.3928 32.0761L47.1632 31.0682C47.1192 30.8751 46.9505 30.7605 46.7864 30.8123Z" fill="#4A4A4A"/>
<path d="M48.5061 30.2703L47.6493 30.5404C47.4851 30.5921 47.3877 30.7906 47.4317 30.9836L47.6613 31.9916C47.7053 32.1846 47.874 32.2992 48.0381 32.2475L48.895 31.9774C49.0591 31.9257 49.1565 31.7272 49.1125 31.5341L48.883 30.5262C48.839 30.3331 48.6703 30.2186 48.5061 30.2703Z" fill="#4A4A4A"/>
<path d="M50.2258 29.7283L49.369 29.9984C49.2048 30.0501 49.1074 30.2486 49.1514 30.4416L49.381 31.4496C49.425 31.6426 49.5937 31.7572 49.7579 31.7055L50.6147 31.4354C50.7788 31.3837 50.8763 31.1852 50.8323 30.9921L50.6027 29.9842C50.5587 29.7911 50.39 29.6766 50.2258 29.7283Z" fill="#4A4A4A"/>
<path d="M51.9463 29.1861L51.0894 29.4561C50.9253 29.5079 50.8279 29.7063 50.8719 29.8994L51.1015 30.9073C51.1454 31.1004 51.3142 31.215 51.4783 31.1633L52.3352 30.8932C52.4993 30.8414 52.5967 30.643 52.5527 30.4499L52.3231 29.442C52.2792 29.2489 52.1104 29.1343 51.9463 29.1861Z" fill="#4A4A4A"/>
<path d="M53.666 28.6441L52.8092 28.9141C52.645 28.9659 52.5476 29.1643 52.5916 29.3574L52.8212 30.3653C52.8652 30.5584 53.0339 30.673 53.198 30.6213L54.0549 30.3512C54.219 30.2995 54.3164 30.101 54.2725 29.9079L54.0429 28.9C53.9989 28.7069 53.8302 28.5923 53.666 28.6441Z" fill="#4A4A4A"/>
<path fill-rule="evenodd" clip-rule="evenodd" d="M54.5834 28.3552L56.4612 27.7634C56.54 27.7385 56.624 27.7515 56.6946 27.7995C56.7653 27.8475 56.8169 27.9266 56.838 28.0193L57.0676 29.0272C57.0887 29.1199 57.0777 29.2187 57.0369 29.3018C56.996 29.385 56.9288 29.4456 56.85 29.4705L54.972 30.0624C54.8931 30.0873 54.8092 30.0743 54.7385 30.0263C54.6678 29.9783 54.6162 29.8992 54.5951 29.8065L54.3656 28.7989C54.3445 28.7062 54.3555 28.6074 54.3963 28.5243C54.4371 28.4412 54.5044 28.3805 54.5832 28.3556L54.5834 28.3552Z" fill="#4A4A4A"/>
<path d="M34.515 39.1526L33.6582 39.4227C33.494 39.4744 33.3966 39.6729 33.4406 39.866L33.6702 40.8739C33.7142 41.067 33.8829 41.1815 34.047 41.1298L34.9039 40.8597C35.068 40.808 35.1654 40.6095 35.1215 40.4165L34.8919 39.4085C34.8479 39.2155 34.6792 39.1009 34.515 39.1526Z" fill="#4A4A4A"/>
<path d="M36.2354 38.6106L35.3785 38.8807C35.2144 38.9324 35.117 39.1309 35.1609 39.324L35.3905 40.3319C35.4345 40.525 35.6032 40.6396 35.7674 40.5878L36.6242 40.3177C36.7884 40.266 36.8858 40.0675 36.8418 39.8745L36.6122 38.8665C36.5682 38.6735 36.3995 38.5589 36.2354 38.6106Z" fill="#4A4A4A"/>
<path d="M37.9544 38.0684L37.0975 38.3385C36.9334 38.3902 36.8359 38.5887 36.8799 38.7817L37.1095 39.7896C37.1535 39.9827 37.3222 40.0973 37.4864 40.0456L38.3432 39.7755C38.5074 39.7238 38.6048 39.5253 38.5608 39.3322L38.3312 38.3243C38.2872 38.1312 38.1185 38.0166 37.9544 38.0684Z" fill="#4A4A4A"/>
<path d="M39.6748 37.5261L38.818 37.7962C38.6538 37.848 38.5564 38.0464 38.6004 38.2395L38.83 39.2474C38.874 39.4405 39.0427 39.5551 39.2068 39.5033L40.0637 39.2333C40.2278 39.1815 40.3252 38.9831 40.2812 38.79L40.0517 37.7821C40.0077 37.589 39.839 37.4744 39.6748 37.5261Z" fill="#4A4A4A"/>
<path fill-rule="evenodd" clip-rule="evenodd" d="M40.5377 37.2542L48.812 34.6463C48.8908 34.6214 48.9748 34.6344 49.0454 34.6824C49.1161 34.7304 49.1677 34.8095 49.1888 34.9022L49.4185 35.9105C49.4396 36.0032 49.4285 36.102 49.3877 36.1851C49.3469 36.2682 49.2797 36.3289 49.2009 36.3537L40.9266 38.9617C40.8478 38.9865 40.7638 38.9735 40.6931 38.9255C40.6225 38.8775 40.5709 38.7985 40.5498 38.7058L40.3201 37.6975C40.299 37.6048 40.3101 37.506 40.3509 37.4229C40.3917 37.3397 40.4589 37.2791 40.5377 37.2542ZM49.6748 34.3743L50.7468 34.0364C50.8256 34.0116 50.9096 34.0246 50.9803 34.0726C51.0509 34.1206 51.1025 34.1996 51.1236 34.2924L51.3533 35.3006C51.3744 35.3933 51.3634 35.4921 51.3226 35.5753C51.2818 35.6584 51.2146 35.7191 51.1357 35.7439L50.0637 36.0818C49.9849 36.1066 49.9009 36.0936 49.8302 36.0456C49.7595 35.9976 49.708 35.9186 49.6869 35.8259L49.4572 34.8176C49.4361 34.7249 49.4471 34.6261 49.4879 34.543C49.5287 34.4598 49.5959 34.3992 49.6748 34.3743Z" fill="#4A4A4A"/>
<path d="M52.4666 33.4944L51.6097 33.7645C51.4456 33.8162 51.3482 34.0147 51.3921 34.2078L51.6217 35.2157C51.6657 35.4088 51.8344 35.5233 51.9986 35.4716L52.8554 35.2015C53.0196 35.1498 53.117 34.9513 53.073 34.7583L52.8434 33.7503C52.7994 33.5573 52.6307 33.4427 52.4666 33.4944Z" fill="#4A4A4A"/>
<path d="M54.187 32.9524L53.3302 33.2225C53.166 33.2742 53.0686 33.4727 53.1126 33.6658L53.3422 34.6737C53.3862 34.8668 53.5549 34.9813 53.719 34.9296L54.5759 34.6595C54.74 34.6078 54.8374 34.4093 54.7935 34.2163L54.5639 33.2083C54.5199 33.0153 54.3512 32.9007 54.187 32.9524Z" fill="#4A4A4A"/>
<path d="M57.4111 31.9361L56.5543 32.2061C56.3901 32.2579 56.2927 32.4563 56.3367 32.6494L56.5663 33.6573C56.6103 33.8504 56.779 33.965 56.9432 33.9133L57.8 33.6432C57.9641 33.5914 58.0616 33.393 58.0176 33.1999L57.788 32.192C57.744 31.9989 57.5753 31.8843 57.4111 31.9361Z" fill="#4A4A4A"/>
<path d="M54.8102 33.5353L54.7242 33.1577C54.7031 33.065 54.7141 32.9662 54.7549 32.8831C54.7957 32.8 54.8629 32.7393 54.9418 32.7144L55.7986 32.4444C55.8774 32.4195 55.9614 32.4325 56.0321 32.4805C56.1028 32.5285 56.1543 32.6076 56.1755 32.7003L56.2615 33.0779L54.8102 33.5353Z" fill="#4A4A4A"/>
<path d="M56.3197 33.3304L56.4057 33.708C56.4268 33.8007 56.4157 33.8995 56.3749 33.9826C56.3341 34.0658 56.2669 34.1264 56.1881 34.1513L55.3313 34.4213C55.2524 34.4462 55.1684 34.4332 55.0978 34.3852C55.0271 34.3372 54.9755 34.2581 54.9544 34.1654L54.8684 33.7878L56.3197 33.3304Z" fill="#4A4A4A"/>
<path d="M55.2583 22.8567L31.7168 30.2768C31.5387 30.3329 31.433 30.5482 31.4807 30.7577C31.5284 30.9672 31.7115 31.0916 31.8896 31.0354L55.4311 23.6154C55.6092 23.5593 55.7149 23.3439 55.6672 23.1344C55.6195 22.9249 55.4364 22.8006 55.2583 22.8567Z" fill="#4A4A4A"/>
<path opacity="0.136" d="M33.1552 29.9589L32.2288 30.2509C32.1101 30.2883 32.0397 30.4318 32.0715 30.5714L32.0716 30.5717C32.1034 30.7113 32.2254 30.7942 32.344 30.7568L33.2704 30.4648C33.3891 30.4274 33.4595 30.2839 33.4277 30.1443L33.4277 30.1439C33.3959 30.0043 33.2739 29.9215 33.1552 29.9589Z" fill="#D8D8D8"/>
<path opacity="0.136" d="M35.0112 29.3739L34.0848 29.6659C33.9661 29.7033 33.8957 29.8468 33.9275 29.9864L33.9275 29.9868C33.9593 30.1264 34.0813 30.2092 34.2 30.1718L35.1264 29.8798C35.2451 29.8424 35.3155 29.6989 35.2837 29.5593L35.2836 29.559C35.2518 29.4194 35.1298 29.3365 35.0112 29.3739Z" fill="#D8D8D8"/>
<path opacity="0.136" d="M36.4394 28.924L35.513 29.216C35.3943 29.2534 35.3239 29.3969 35.3557 29.5365L35.3558 29.5368C35.3876 29.6764 35.5095 29.7592 35.6282 29.7218L36.5546 29.4299C36.6733 29.3924 36.7437 29.249 36.7119 29.1094L36.7118 29.109C36.68 28.9694 36.5581 28.8866 36.4394 28.924Z" fill="#D8D8D8"/>
<path opacity="0.136" d="M37.8669 28.474L36.9405 28.766C36.8218 28.8034 36.7514 28.9469 36.7832 29.0865L36.7832 29.0869C36.815 29.2265 36.937 29.3093 37.0557 29.2719L37.9821 28.9799C38.1008 28.9425 38.1712 28.799 38.1394 28.6594L38.1393 28.6591C38.1075 28.5195 37.9855 28.4366 37.8669 28.474Z" fill="#D8D8D8"/>
<path opacity="0.136" d="M39.2944 28.0241L38.368 28.3161C38.2493 28.3535 38.1789 28.497 38.2107 28.6366L38.2107 28.6369C38.2425 28.7765 38.3645 28.8593 38.4832 28.8219L39.4096 28.53C39.5283 28.4925 39.5987 28.3491 39.5669 28.2095L39.5668 28.2091C39.535 28.0695 39.413 27.9867 39.2944 28.0241Z" fill="#D8D8D8"/>
<path opacity="0.136" d="M41.0785 27.4616L40.1521 27.7536C40.0335 27.791 39.963 27.9345 39.9948 28.0741L39.9949 28.0744C40.0267 28.214 40.1487 28.2968 40.2674 28.2594L41.1938 27.9675C41.3124 27.93 41.3829 27.7866 41.3511 27.647L41.351 27.6466C41.3192 27.507 41.1972 27.4242 41.0785 27.4616Z" fill="#D8D8D8"/>
<path opacity="0.136" d="M42.506 27.0116L41.5796 27.3036C41.461 27.341 41.3905 27.4845 41.4223 27.6241L41.4224 27.6245C41.4542 27.7641 41.5762 27.8469 41.6949 27.8095L42.6213 27.5175C42.7399 27.4801 42.8104 27.3366 42.7786 27.197L42.7785 27.1967C42.7467 27.0571 42.6247 26.9742 42.506 27.0116Z" fill="#D8D8D8"/>
<path opacity="0.136" d="M43.9342 26.5617L43.0079 26.8537C42.8892 26.8911 42.8187 27.0346 42.8505 27.1742L42.8506 27.1745C42.8824 27.3141 43.0044 27.3969 43.1231 27.3595L44.0495 27.0675C44.1682 27.0301 44.2386 26.8867 44.2068 26.7471L44.2067 26.7467C44.1749 26.6071 44.0529 26.5243 43.9342 26.5617Z" fill="#D8D8D8"/>
<path opacity="0.136" d="M45.3617 26.1117L44.4353 26.4037C44.3167 26.4411 44.2462 26.5846 44.278 26.7242L44.2781 26.7246C44.3099 26.8641 44.4319 26.947 44.5506 26.9096L45.477 26.6176C45.5956 26.5802 45.6661 26.4367 45.6343 26.2971L45.6342 26.2968C45.6024 26.1572 45.4804 26.0743 45.3617 26.1117Z" fill="#D8D8D8"/>
<path opacity="0.136" d="M47.1459 25.5492L46.2195 25.8412C46.1008 25.8786 46.0304 26.0221 46.0622 26.1617L46.0623 26.1621C46.0941 26.3016 46.2161 26.3845 46.3348 26.3471L47.2612 26.0551C47.3798 26.0177 47.4503 25.8742 47.4185 25.7346L47.4184 25.7343C47.3866 25.5947 47.2646 25.5118 47.1459 25.5492Z" fill="#D8D8D8"/>
<path opacity="0.136" d="M48.5741 25.0993L47.6477 25.3913C47.5291 25.4287 47.4586 25.5722 47.4904 25.7117L47.4905 25.7121C47.5223 25.8517 47.6443 25.9345 47.763 25.8971L48.6894 25.6051C48.8081 25.5677 48.8785 25.4243 48.8467 25.2847L48.8466 25.2843C48.8148 25.1447 48.6928 25.0619 48.5741 25.0993Z" fill="#D8D8D8"/>
<path opacity="0.136" d="M50.0016 24.6493L49.0752 24.9413C48.9566 24.9787 48.8861 25.1222 48.9179 25.2618L48.918 25.2621C48.9498 25.4017 49.0718 25.4846 49.1905 25.4472L50.1169 25.1552C50.2355 25.1178 50.306 24.9743 50.2742 24.8347L50.2741 24.8344C50.2423 24.6948 50.1203 24.6119 50.0016 24.6493Z" fill="#D8D8D8"/>
<path opacity="0.136" d="M51.7858 24.0868L50.8594 24.3788C50.7407 24.4162 50.6703 24.5597 50.7021 24.6993L50.7022 24.6996C50.734 24.8392 50.856 24.9221 50.9746 24.8847L51.901 24.5927C52.0197 24.5553 52.0901 24.4118 52.0583 24.2722L52.0583 24.2719C52.0265 24.1323 51.9045 24.0494 51.7858 24.0868Z" fill="#D8D8D8"/>
<path opacity="0.136" d="M53.2133 23.6369L52.2869 23.9289C52.1682 23.9663 52.0978 24.1097 52.1296 24.2493L52.1297 24.2497C52.1615 24.3893 52.2835 24.4721 52.4021 24.4347L53.3285 24.1427C53.4472 24.1053 53.5176 23.9618 53.4858 23.8223L53.4858 23.8219C53.454 23.6823 53.332 23.5995 53.2133 23.6369Z" fill="#D8D8D8"/>
<path opacity="0.136" d="M54.6415 23.1869L53.7151 23.4789C53.5965 23.5163 53.526 23.6598 53.5578 23.7994L53.5579 23.7997C53.5897 23.9393 53.7117 24.0222 53.8304 23.9848L54.7568 23.6928C54.8754 23.6554 54.9459 23.5119 54.9141 23.3723L54.914 23.3719C54.8822 23.2324 54.7602 23.1495 54.6415 23.1869Z" fill="#D8D8D8"/>
<path fill-rule="evenodd" clip-rule="evenodd" d="M24.6155 38.2835H36.9232V31.0447H24.6155V38.2835Z" fill="white"/>
<path fill-rule="evenodd" clip-rule="evenodd" d="M43.0771 8.87606C43.0279 8.87606 42.9756 8.86882 42.9263 8.85796C42.8768 8.84664 42.8284 8.82967 42.7817 8.80729C42.7356 8.78558 42.6925 8.75662 42.6491 8.72405C42.6091 8.69147 42.5694 8.65166 42.5322 8.61184C42.4986 8.56841 42.4648 8.52498 42.4371 8.47431C42.4094 8.42364 42.3848 8.37296 42.366 8.31867C42.3282 8.20818 42.3085 8.0903 42.3079 7.97121C42.3079 7.9133 42.314 7.85177 42.3232 7.79386C42.3325 7.73595 42.3479 7.68166 42.366 7.62375C42.3848 7.56946 42.4094 7.51879 42.4371 7.46812C42.4648 7.42107 42.4986 7.37401 42.5322 7.33058C42.5694 7.29077 42.6091 7.25095 42.6491 7.21838C42.6925 7.1858 42.7356 7.15685 42.7817 7.13513C42.8276 7.11342 42.8771 7.09532 42.9263 7.08446C43.0248 7.05913 43.1263 7.05913 43.2279 7.08446C43.2768 7.09532 43.3263 7.11342 43.3725 7.13513C43.4183 7.15685 43.4617 7.1858 43.5048 7.21838C43.5448 7.25095 43.5845 7.29077 43.6217 7.33058C43.6556 7.37401 43.6894 7.42107 43.7171 7.46812C43.7448 7.51879 43.7694 7.56946 43.7879 7.62375C43.8063 7.68166 43.8217 7.73595 43.8309 7.79386C43.8399 7.85177 43.8463 7.9133 43.8463 7.97121C43.8463 8.21009 43.7629 8.44535 43.6217 8.61184C43.5845 8.65166 43.5448 8.69147 43.5048 8.72405C43.4617 8.75662 43.4183 8.78558 43.3725 8.80729C43.2787 8.8523 43.1784 8.87565 43.0771 8.87606ZM49.2309 8.42364C49.0279 8.42364 48.8309 8.32591 48.686 8.15942C48.6518 8.11603 48.6201 8.07009 48.5909 8.02188C48.5632 7.97121 48.5386 7.92054 48.5199 7.86625C48.4821 7.75576 48.4624 7.63788 48.4617 7.51879C48.4617 7.27991 48.5448 7.04827 48.686 6.87816C48.7232 6.83834 48.7629 6.79853 48.8029 6.76596C48.8463 6.73338 48.8894 6.70443 48.9356 6.68271C48.9814 6.66099 49.0309 6.6429 49.0802 6.63204C49.1786 6.6067 49.2832 6.6067 49.3817 6.63204C49.4306 6.6429 49.4802 6.66099 49.5263 6.68271C49.5722 6.70443 49.6156 6.73338 49.6586 6.76596C49.6986 6.79853 49.7383 6.83834 49.7756 6.87816C49.9168 7.04827 50.0002 7.27991 50.0002 7.51879C50.0002 7.5767 49.9937 7.63823 49.9848 7.69614C49.9756 7.75405 49.9602 7.81196 49.9417 7.86625C49.9202 7.92054 49.8986 7.97121 49.8709 8.02188C49.8432 8.06894 49.8094 8.11599 49.7756 8.15942C49.7383 8.19923 49.6986 8.23905 49.6586 8.27162C49.6156 8.3042 49.5722 8.33315 49.5263 8.35487C49.4325 8.39988 49.3322 8.42322 49.2309 8.42364Z" fill="black"/>
</svg>
