<svg width="72" height="72" viewBox="0 0 72 72" fill="none" xmlns="http://www.w3.org/2000/svg">
<path d="M35.9842 41.4998C39.5269 41.4998 42.3988 38.6267 42.3988 35.0824C42.3988 31.5382 39.5269 28.665 35.9842 28.665C32.4416 28.665 29.5696 31.5382 29.5696 35.0824C29.5696 38.6267 32.4416 41.4998 35.9842 41.4998Z" fill="white"/>
<path d="M71.9687 35.0824C71.9687 30.0424 66.0548 25.6598 56.8553 23.0302C59.1708 13.7328 58.3572 6.40762 53.9765 3.90327C49.5958 1.36762 42.8683 4.34153 35.9844 10.9781C29.1004 4.31022 22.3729 1.36762 17.9922 3.90327C14.3625 6.00066 13.0169 11.3224 14.2373 18.8981C14.4563 20.2441 14.7692 21.6215 15.1134 23.0615C5.91395 25.6911 0 30.0737 0 35.1137C0 40.1537 5.91395 44.505 15.1134 47.1659C14.7692 48.5746 14.4563 49.9833 14.2373 51.3294C13.0169 58.905 14.3625 64.2267 17.9922 66.3241C19.0561 66.9502 20.2764 67.2633 21.6219 67.2633C24.8136 67.2633 28.6623 65.5102 32.8553 62.0981C33.8879 61.2528 34.9518 60.2824 35.9844 59.2807C37.0169 60.2824 38.0808 61.2528 39.1134 62.0981C43.3064 65.5102 47.1552 67.2633 50.3468 67.2633C51.6923 67.2633 52.9126 66.9502 53.9765 66.3241C57.6063 64.2267 58.9518 58.905 57.7627 51.3294C57.5437 49.9833 57.2308 48.6059 56.8866 47.1659C66.0861 44.5363 72 40.1537 72 35.1137L71.9687 35.0824ZM52.412 6.59544C55.2282 8.22327 55.854 14.1711 53.8201 22.2476C50.8787 21.5589 47.6558 21.0581 44.2451 20.745C42.2738 17.9589 40.2086 15.4233 38.1747 13.2007C42.9309 8.59892 47.3429 6.09457 50.3781 6.09457C51.1604 6.09457 51.8488 6.25109 52.4433 6.59544H52.412ZM46.0287 40.8737C44.9022 42.7833 43.7445 44.6615 42.5554 46.4146C40.4589 46.5711 38.2686 46.665 36.0156 46.665C33.7627 46.665 31.5724 46.5711 29.4759 46.4146C28.2868 44.6615 27.0978 42.7833 26.0026 40.8737C24.8761 38.9328 23.8748 37.0233 22.9361 35.0824C23.8748 33.1415 24.8761 31.232 26.0026 29.2911C27.1291 27.3189 28.3181 25.472 29.4759 23.7502C31.5724 23.5937 33.7627 23.4998 36.0156 23.4998C38.2686 23.4998 40.4589 23.5937 42.5554 23.7502C43.7445 25.472 44.9022 27.3189 46.0287 29.2911C47.1239 31.2007 48.1565 33.1415 49.0952 35.0824C48.1877 36.992 47.1864 38.9015 46.0287 40.8737ZM50.7223 38.745C51.5984 40.8424 52.3494 42.8772 52.9752 44.8807C50.9726 45.3189 48.8136 45.7259 46.5293 46.0076C47.2803 44.8494 48 43.6598 48.7197 42.4389C49.4394 41.2181 50.0965 39.9659 50.7223 38.745ZM35.9844 54.7102C34.5763 53.1763 33.1682 51.4859 31.7914 49.6702C33.1682 49.7328 34.545 49.7641 35.9844 49.7641C37.4237 49.7641 38.8005 49.7328 40.1773 49.6702C38.8005 51.4859 37.3924 53.145 35.9844 54.7102ZM25.4394 46.0076C23.1551 45.7259 20.9961 45.3502 18.9935 44.8807C19.6193 42.8772 20.3703 40.8424 21.2464 38.745C21.8722 39.9659 22.5293 41.2181 23.249 42.4389C23.9687 43.6598 24.6884 44.8494 25.4394 46.0076ZM21.2464 31.3885C20.3703 29.2911 19.6193 27.2563 18.9935 25.2528C20.9961 24.8146 23.1551 24.4076 25.4394 24.1259C24.6884 25.2841 23.9687 26.4737 23.249 27.6946C22.5293 28.9154 21.8722 30.1363 21.2464 31.3885ZM35.9844 15.4233C37.3611 16.9259 38.7692 18.6163 40.1773 20.4633C38.8005 20.4007 37.4237 20.3694 35.9844 20.3694C34.545 20.3694 33.1682 20.4007 31.7914 20.4633C33.1995 18.6163 34.5763 16.9259 35.9844 15.4233ZM48.7197 27.7259C48 26.505 47.2803 25.3154 46.5293 24.1572C48.8136 24.4389 50.9726 24.8146 52.9752 25.2841C52.3807 27.2563 51.6297 29.2911 50.7223 31.4198C50.0965 30.1989 49.4081 28.9467 48.7197 27.7259ZM17.3038 18.3972C16.3338 12.2928 17.1473 8.00414 19.5567 6.62675C20.1512 6.2824 20.8396 6.12588 21.6219 6.12588C24.6571 6.12588 29.0691 8.63022 33.8253 13.232C31.7601 15.4546 29.7262 17.9902 27.7549 20.7763C24.3442 21.0894 21.1213 21.5902 18.1799 22.2789C17.8357 20.9641 17.5541 19.6494 17.3664 18.4285L17.3038 18.3972ZM3.12907 35.0824C3.12907 31.8267 7.94785 28.3207 15.9583 26.0354C16.8657 28.9467 18.0548 31.9833 19.4628 35.0824C18.0548 38.1502 16.8657 41.1867 15.9583 44.1294C7.97914 41.8441 3.12907 38.3694 3.12907 35.0824ZM30.884 59.5937C26.0965 63.4754 21.9661 64.9154 19.5567 63.5381C17.1473 62.1607 16.3338 57.8407 17.3038 51.7676C17.4915 50.5154 17.8044 49.232 18.1173 47.9172C21.0587 48.6059 24.2816 49.1067 27.6923 49.4198C29.6636 52.1746 31.6975 54.7415 33.7627 56.9954C32.7927 57.9346 31.8227 58.8424 30.8527 59.625L30.884 59.5937ZM54.6649 51.7676C55.6349 57.872 54.8214 62.1607 52.412 63.5381C50.0026 64.9154 45.8722 63.4754 41.0847 59.5937C40.1147 58.8111 39.1447 57.9033 38.1747 56.9641C40.2712 54.7102 42.3051 52.1746 44.2451 49.4198C47.6558 49.1067 50.8787 48.6059 53.8201 47.9172C54.1643 49.232 54.4459 50.5467 54.6336 51.7676H54.6649ZM56.0104 44.0981C55.103 41.1867 53.914 38.1502 52.5059 35.0511C53.9452 31.9207 55.103 28.8841 56.0104 26.0041C64.0209 28.2894 68.8396 31.7641 68.8396 35.0511C68.8396 38.3381 64.0209 41.8128 56.0104 44.0981Z" fill="white"/>
</svg>
