<svg width="60" height="60" viewBox="0 0 60 60" fill="none" xmlns="http://www.w3.org/2000/svg">
<path d="M27.7899 4L17.7471 19.0577V28.6035H11.5923V19.0577L2 4H8.91839L15.0179 13.696L21.1668 4H27.7899Z" fill="white"/>
<path d="M38.1258 23.1896H26.9847L24.7187 28.6609H19.7848L30.2177 4.05737H35.2642L45.2734 28.6609H40.0016L38.1268 23.1896H38.1258ZM36.2747 18.2774L32.859 9.24814L29.0491 18.2774H36.2747Z" fill="white"/>
<path d="M11.5922 31.3633V55.4769H16.7661V38.8437L22.1801 50.0234H26.2527L31.8524 38.4506V55.4719H36.816V31.3633H30.0389L24.0263 42.2683L18.2992 31.3633H11.5922Z" fill="white"/>
<path d="M58.0001 50.2368H45.2726V31.3574H40.0018V55.3673H58.0001V50.2368Z" fill="white"/>
</svg>
